sample_movement
version=1
nRows=4
nColumns=115
inDegrees=yes
endheader
time HIPS_TX HIPS_TY HIPS_TZ HIPS_RX HIPS_RY HIPS_RZ SPINE_TX SPINE_TY SPINE_TZ SPINE_RX SPINE_RY SPINE_RZ CHEST_TX CHEST_TY CHEST_TZ CHEST_RX CHEST_RY CHEST_RZ NECK_TX NECK_TY NECK_TZ NECK_RX NECK_RY NECK_RZ SHOULDER_L_TX SHOULDER_L_TY SHOULDER_L_TZ SHOULDER_L_RX SHOULDER_L_RY SHOULDER_L_RZ ARM_L_TX ARM_L_TY ARM_L_TZ ARM_L_RX ARM_L_RY ARM_L_RZ FOREARM_L_TX FOREARM_L_TY FOREARM_L_TZ FOREARM_L_RX FOREARM_L_RY FOREARM_L_RZ HAND_L_TX HAND_L_TY HAND_L_TZ HAND_L_RX HAND_L_RY HAND_L_RZ SHOULDER_R_TX SHOULDER_R_TY SHOULDER_R_TZ SHOULDER_R_RX SHOULDER_R_RY SHOULDER_R_RZ ARM_R_TX ARM_R_TY ARM_R_TZ ARM_R_RX ARM_R_RY ARM_R_RZ FOREARM_R_TX FOREARM_R_TY FOREARM_R_TZ FOREARM_R_RX FOREARM_R_RY FOREARM_R_RZ HAND_R_TX HAND_R_TY HAND_R_TZ HAND_R_RX HAND_R_RY HAND_R_RZ UPLEG_L_TX UPLEG_L_TY UPLEG_L_TZ UPLEG_L_RX UPLEG_L_RY UPLEG_L_RZ LEG_L_TX LEG_L_TY LEG_L_TZ LEG_L_RX LEG_L_RY LEG_L_RZ FOOT_L_TX FOOT_L_TY FOOT_L_TZ FOOT_L_RX FOOT_L_RY FOOT_L_RZ UPLEG_R_TX UPLEG_R_TY UPLEG_R_TZ UPLEG_R_RX UPLEG_R_RY UPLEG_R_RZ LEG_R_TX LEG_R_TY LEG_R_TZ LEG_R_RX LEG_R_RY LEG_R_RZ FOOT_R_TX FOOT_R_TY FOOT_R_TZ FOOT_R_RX FOOT_R_RY FOOT_R_RZ HEAD_TX HEAD_TY HEAD_TZ HEAD_RX HEAD_RY HEAD_RZ
0.00000000 0.14891200 0.75125003 1.03330696 145.64178671 -7.65804412 -164.88214168 0.00000000 0.00000000 0.00000000 -0.01180052 0.00000766 0.00005309 0.00000000 0.00000000 0.00000000 -1.96393848 -5.97516524 -0.61344676 0.00000000 0.00000000 0.00000000 9.19935359 -0.00009387 -0.00000564 0.00000000 0.00000000 0.00000000 -6.49465280 -11.72738534 -18.13276545 0.00000000 0.00000000 0.00000000 23.39995544 -18.81318934 -49.57984891 0.00000000 0.00000000 0.00000000 -0.00000061 -44.46674848 0.00005352 0.00000000 0.00000000 0.00000000 -54.79119813 7.79048261 6.72529084 0.00000000 0.00000000 0.00000000 -4.72943982 7.58993143 15.11370623 0.00000000 0.00000000 0.00000000 -19.80146484 29.12452051 28.21491593 0.00000000 0.00000000 0.00000000 -0.00003809 28.75629367 0.00006446 0.00000000 0.00000000 0.00000000 -93.66312918 31.28787159 50.43408007 0.00000000 0.00000000 0.00000000 -6.90068653 10.99828382 3.41953397 0.00000000 0.00000000 0.00000000 24.13632953 -0.00289296 -0.00695158 0.00000000 0.00000000 0.00000000 -2.83492861 -5.20441686 0.32928207 0.00000000 0.00000000 0.00000000 -22.80815136 -10.14558024 -6.48264452 0.00000000 0.00000000 0.00000000 31.41798635 0.00732946 0.01129126 0.00000000 0.00000000 0.00000000 -3.92993153 8.14222599 -0.36351605 0.00000000 0.00000000 0.00000000 -6.11185899 -34.22836657 3.91606568
0.01096000 0.14891200 0.75125003 1.03330696 145.64178671 -7.65804412 -164.88214168 0.00000000 0.00000000 0.00000000 -0.01180052 0.00000766 0.00005309 0.00000000 0.00000000 0.00000000 -1.96393848 -5.97516524 -0.61344676 0.00000000 0.00000000 0.00000000 9.19935359 -0.00009387 -0.00000564 0.00000000 0.00000000 0.00000000 -6.49465280 -11.72738534 -18.13276545 0.00000000 0.00000000 0.00000000 23.39995544 -18.81318934 -49.57984891 0.00000000 0.00000000 0.00000000 -0.00000061 -44.46674848 0.00005352 0.00000000 0.00000000 0.00000000 -54.79119813 7.79048261 6.72529084 0.00000000 0.00000000 0.00000000 -4.72943982 7.58993143 15.11370623 0.00000000 0.00000000 0.00000000 -19.80146484 29.12452051 28.21491593 0.00000000 0.00000000 0.00000000 -0.00003809 28.75629367 0.00006446 0.00000000 0.00000000 0.00000000 -93.66312918 31.28787159 50.43408007 0.00000000 0.00000000 0.00000000 -6.90068653 10.99828382 3.41953397 0.00000000 0.00000000 0.00000000 24.13632953 -0.00289296 -0.00695158 0.00000000 0.00000000 0.00000000 -2.83492861 -5.20441686 0.32928207 0.00000000 0.00000000 0.00000000 -22.80815136 -10.14558024 -6.48264452 0.00000000 0.00000000 0.00000000 31.41798635 0.00732946 0.01129126 0.00000000 0.00000000 0.00000000 -3.92993153 8.14222599 -0.36351605 0.00000000 0.00000000 0.00000000 -6.11185899 -34.22836657 3.91606568
0.02193100 0.14921500 0.75064999 1.04298306 143.60886050 -3.97649449 -165.38721747 0.00000000 0.00000000 0.00000000 -1.65717081 0.00007705 -0.00004006 0.00000000 0.00000000 0.00000000 -0.68464984 -2.33809433 -1.48212681 0.00000000 0.00000000 0.00000000 9.19932801 0.00005490 0.00004073 0.00000000 0.00000000 0.00000000 -5.77914201 -11.22747210 -15.50911900 0.00000000 0.00000000 0.00000000 20.74340289 -17.99184861 -51.62217594 0.00000000 0.00000000 0.00000000 -0.00015998 -46.43383408 -0.00006458 0.00000000 0.00000000 0.00000000 -48.31982654 5.84326593 3.40857233 0.00000000 0.00000000 0.00000000 -5.11489892 9.97127086 13.76229562 0.00000000 0.00000000 0.00000000 -19.48182673 28.11263610 28.81074455 0.00000000 0.00000000 0.00000000 0.00002010 26.51340942 -0.00003162 0.00000000 0.00000000 0.00000000 -97.64094091 32.10401228 53.93564314 0.00000000 0.00000000 0.00000000 -11.28357146 10.15172886 3.73655106 0.00000000 0.00000000 0.00000000 27.62320282 -0.00321380 -0.00676895 0.00000000 0.00000000 0.00000000 -3.05563413 -4.64165992 0.27670779 0.00000000 0.00000000 0.00000000 -26.39921706 -8.58798486 -5.20230122 0.00000000 0.00000000 0.00000000 35.73170754 0.00822828 0.01070162 0.00000000 0.00000000 0.00000000 -3.88058625 6.53903680 -0.30082336 0.00000000 0.00000000 0.00000000 -4.83773131 -33.90814592 6.63860148
0.03290100 0.14921500 0.75064999 1.04298306 143.60886050 -3.97649449 -165.38721747 0.00000000 0.00000000 0.00000000 -1.65717081 0.00007705 -0.00004006 0.00000000 0.00000000 0.00000000 -0.68464984 -2.33809433 -1.48212681 0.00000000 0.00000000 0.00000000 9.19932801 0.00005490 0.00004073 0.00000000 0.00000000 0.00000000 -5.77914201 -11.22747210 -15.50911900 0.00000000 0.00000000 0.00000000 20.74340289 -17.99184861 -51.62217594 0.00000000 0.00000000 0.00000000 -0.00015998 -46.43383408 -0.00006458 0.00000000 0.00000000 0.00000000 -48.31982654 5.84326593 3.40857233 0.00000000 0.00000000 0.00000000 -5.11489892 9.97127086 13.76229562 0.00000000 0.00000000 0.00000000 -19.48182673 28.11263610 28.81074455 0.00000000 0.00000000 0.00000000 0.00002010 26.51340942 -0.00003162 0.00000000 0.00000000 0.00000000 -97.64094091 32.10401228 53.93564314 0.00000000 0.00000000 0.00000000 -11.28357146 10.15172886 3.73655106 0.00000000 0.00000000 0.00000000 27.62320282 -0.00321380 -0.00676895 0.00000000 0.00000000 0.00000000 -3.05563413 -4.64165992 0.27670779 0.00000000 0.00000000 0.00000000 -26.39921706 -8.58798486 -5.20230122 0.00000000 0.00000000 0.00000000 35.73170754 0.00822828 0.01070162 0.00000000 0.00000000 0.00000000 -3.88058625 6.53903680 -0.30082336 0.00000000 0.00000000 0.00000000 -4.83773131 -33.90814592 6.63860148
